<?xml version="1.0" encoding="us-ascii" standalone="no"?><svg xmlns="http://www.w3.org/2000/svg" xmlns:xlink="http://www.w3.org/1999/xlink" contentStyleType="text/css" height="746px" preserveAspectRatio="none" style="width:9116px;height:746px;background:#FFFFFF;" version="1.1" viewBox="0 0 9116 746" width="9116px" zoomAndPan="magnify"><defs/><g><!--entity Client--><g id="elem_Client"><ellipse cx="850.5" cy="151" fill="#F1F1F1" rx="8" ry="8" style="stroke:#181818;stroke-width:0.5;"/><path d="M850.5,159 L850.5,186 M837.5,167 L863.5,167 M850.5,186 L837.5,201 M850.5,186 L863.5,201 " fill="none" style="stroke:#181818;stroke-width:0.5;"/><text fill="#000000" font-family="sans-serif" font-size="14" lengthAdjust="spacing" textLength="38" x="831.5" y="215.4951">Klient</text></g><!--entity Repairman--><g id="elem_Repairman"><ellipse cx="5553.5" cy="151" fill="#F1F1F1" rx="8" ry="8" style="stroke:#181818;stroke-width:0.5;"/><path d="M5553.5,159 L5553.5,186 M5540.5,167 L5566.5,167 M5553.5,186 L5540.5,201 M5553.5,186 L5566.5,201 " fill="none" style="stroke:#181818;stroke-width:0.5;"/><text fill="#000000" font-family="sans-serif" font-size="14" lengthAdjust="spacing" textLength="67" x="5520" y="215.4951">Serwisant</text></g><!--entity Manager--><g id="elem_Manager"><ellipse cx="8611.5" cy="299" fill="#F1F1F1" rx="8" ry="8" style="stroke:#181818;stroke-width:0.5;"/><path d="M8611.5,307 L8611.5,334 M8598.5,315 L8624.5,315 M8611.5,334 L8598.5,349 M8611.5,334 L8624.5,349 " fill="none" style="stroke:#181818;stroke-width:0.5;"/><text fill="#000000" font-family="sans-serif" font-size="14" lengthAdjust="spacing" textLength="66" x="8578.5" y="363.4951">Kierownik</text></g><!--entity User--><g id="elem_User"><ellipse cx="3003.5" cy="14" fill="#F1F1F1" rx="8" ry="8" style="stroke:#181818;stroke-width:0.5;"/><path d="M3003.5,22 L3003.5,49 M2990.5,30 L3016.5,30 M3003.5,49 L2990.5,64 M3003.5,49 L3016.5,64 " fill="none" style="stroke:#181818;stroke-width:0.5;"/><text fill="#000000" font-family="sans-serif" font-size="14" lengthAdjust="spacing" textLength="78" x="2964.5" y="78.4951">U&#380;ytkownik</text></g><g id="elem_UC001"><ellipse cx="282.7099" cy="328.642" fill="#F1F1F1" rx="151.2099" ry="32.642" style="stroke:#181818;stroke-width:0.5;"/><text fill="#000000" font-family="sans-serif" font-size="14" lengthAdjust="spacing" textLength="273" x="146.2099" y="331.4887">UC001: Zg&#322;oszenie sprz&#281;tu do naprawy</text></g><g id="elem_UC002"><ellipse cx="263.5287" cy="513.1057" fill="#F1F1F1" rx="211.0287" ry="44.6057" style="stroke:#181818;stroke-width:0.5;"/><text fill="#000000" font-family="sans-serif" font-size="14" lengthAdjust="spacing" textLength="396" x="65.5287" y="515.9524">UC002: Wydrukowanie potwierdzenia zg&#322;oszenia naprawy</text></g><g id="elem_UC003"><ellipse cx="4941.6801" cy="328.436" fill="#F1F1F1" rx="182.6801" ry="38.936" style="stroke:#181818;stroke-width:0.5;"/><text fill="#000000" font-family="sans-serif" font-size="14" lengthAdjust="spacing" textLength="338" x="4772.6801" y="331.2827">UC003: Przyj&#281;cie osobistego zg&#322;oszenia naprawy</text></g><g id="elem_UC004"><ellipse cx="6554.6351" cy="328.527" fill="#F1F1F1" rx="233.1351" ry="49.027" style="stroke:#181818;stroke-width:0.5;"/><text fill="#000000" font-family="sans-serif" font-size="14" lengthAdjust="spacing" textLength="441" x="6334.1351" y="331.3737">UC004: Wy&#347;wietlenie listy zg&#322;oszonych napraw przez serwisanta</text></g><g id="elem_UC005"><ellipse cx="5155.5416" cy="513.0083" fill="#F1F1F1" rx="155.5416" ry="33.5083" style="stroke:#181818;stroke-width:0.5;"/><text fill="#000000" font-family="sans-serif" font-size="14" lengthAdjust="spacing" textLength="282" x="5014.5416" y="515.855">UC005: Wydrukowanie etykiety na sprz&#281;t</text></g><g id="elem_UC006"><ellipse cx="5380.3262" cy="328.2652" fill="#F1F1F1" rx="221.8262" ry="46.7652" style="stroke:#181818;stroke-width:0.5;"/><text fill="#000000" font-family="sans-serif" font-size="14" lengthAdjust="spacing" textLength="418" x="5171.3262" y="331.1119">UC006: Wprowadzenie sprz&#281;tu dostarczonego przez kuriera</text></g><g id="elem_UC007"><ellipse cx="6456.5071" cy="513.0014" fill="#F1F1F1" rx="280.5071" ry="58.5014" style="stroke:#181818;stroke-width:0.5;"/><text fill="#000000" font-family="sans-serif" font-size="14" lengthAdjust="spacing" textLength="537" x="6188.0071" y="515.8481">UC007: Wy&#347;wietlenie informacji szczeg&#243;&#322;owych o zg&#322;oszeniu przez serwisanta</text></g><g id="elem_UC008"><ellipse cx="6456.3975" cy="694.4795" fill="#F1F1F1" rx="217.8975" ry="45.9795" style="stroke:#181818;stroke-width:0.5;"/><text fill="#000000" font-family="sans-serif" font-size="14" lengthAdjust="spacing" textLength="410" x="6251.3975" y="697.3262">UC008: Ustawienie zg&#322;oszenia jako obecnie obs&#322;ugiwanego</text></g><g id="elem_UC009"><ellipse cx="3395.5678" cy="328.7136" fill="#F1F1F1" rx="209.0678" ry="44.2136" style="stroke:#181818;stroke-width:0.5;"/><text fill="#000000" font-family="sans-serif" font-size="14" lengthAdjust="spacing" textLength="392" x="3199.5678" y="331.5602">UC009: Wy&#347;wietlenie obecnie obs&#322;ugiwanego zg&#322;oszenia</text></g><g id="elem_UC010"><ellipse cx="1418.2643" cy="512.8529" fill="#F1F1F1" rx="199.7643" ry="42.3529" style="stroke:#181818;stroke-width:0.5;"/><text fill="#000000" font-family="sans-serif" font-size="14" lengthAdjust="spacing" textLength="373" x="1231.7643" y="515.6995">UC010: Od&#322;o&#380;enie obecnie obs&#322;ugiwanego zg&#322;oszenia</text></g><g id="elem_UC011"><ellipse cx="3740.2982" cy="512.8596" fill="#F1F1F1" rx="162.2982" ry="34.8596" style="stroke:#181818;stroke-width:0.5;"/><text fill="#000000" font-family="sans-serif" font-size="14" lengthAdjust="spacing" textLength="296" x="3592.2982" y="515.7063">UC011: Postawienie pocz&#261;tkowej diagnozy</text></g><g id="elem_UC012"><ellipse cx="1137.5055" cy="694.7011" fill="#F1F1F1" rx="156.5055" ry="33.7011" style="stroke:#181818;stroke-width:0.5;"/><text fill="#000000" font-family="sans-serif" font-size="14" lengthAdjust="spacing" textLength="284" x="995.5055" y="697.5478">UC012: Zatwierdzenie decyzji o naprawie</text></g><g id="elem_UC013"><ellipse cx="685.7327" cy="328.5465" fill="#F1F1F1" rx="180.7327" ry="38.5465" style="stroke:#181818;stroke-width:0.5;"/><text fill="#000000" font-family="sans-serif" font-size="14" lengthAdjust="spacing" textLength="334" x="518.7327" y="331.3932">UC013: Wy&#347;wietlenie listy zg&#322;osze&#324; przez klienta</text></g><g id="elem_UC014"><ellipse cx="775.6728" cy="513.1346" fill="#F1F1F1" rx="266.1728" ry="55.6346" style="stroke:#181818;stroke-width:0.5;"/><text fill="#000000" font-family="sans-serif" font-size="14" lengthAdjust="spacing" textLength="508" x="521.6728" y="515.9812">UC014: Wy&#347;wietlenie informacji szczeg&#243;&#322;owych o zg&#322;oszeniu przez klienta</text></g><g id="elem_UC015"><ellipse cx="160.5781" cy="694.3156" fill="#F1F1F1" rx="154.5781" ry="33.3156" style="stroke:#181818;stroke-width:0.5;"/><text fill="#000000" font-family="sans-serif" font-size="14" lengthAdjust="spacing" textLength="280" x="20.5781" y="697.1623">UC015: Wys&#322;anie wiadomo&#347;ci do serwisu</text></g><g id="elem_UC016"><ellipse cx="5974.7292" cy="694.5458" fill="#F1F1F1" rx="150.7292" ry="32.5458" style="stroke:#181818;stroke-width:0.5;"/><text fill="#000000" font-family="sans-serif" font-size="14" lengthAdjust="spacing" textLength="272" x="5838.7292" y="697.3925">UC016: Wys&#322;anie wiadomo&#347;ci do klienta</text></g><g id="elem_UC017"><ellipse cx="1833.2595" cy="512.8519" fill="#F1F1F1" rx="179.7595" ry="38.3519" style="stroke:#181818;stroke-width:0.5;"/><text fill="#000000" font-family="sans-serif" font-size="14" lengthAdjust="spacing" textLength="332" x="1667.2595" y="515.6986">UC017: Oznaczenie zg&#322;oszenia jako naprawione</text></g><g id="elem_UC018"><ellipse cx="460.5557" cy="694.4111" fill="#F1F1F1" rx="110.0557" ry="24.4111" style="stroke:#181818;stroke-width:0.5;"/><text fill="#000000" font-family="sans-serif" font-size="14" lengthAdjust="spacing" textLength="186" x="367.5557" y="697.2578">UC018: Op&#322;acenie naprawy</text></g><g id="elem_UC019"><ellipse cx="2220.485" cy="512.797" fill="#F1F1F1" rx="171.985" ry="36.797" style="stroke:#181818;stroke-width:0.5;"/><text fill="#000000" font-family="sans-serif" font-size="14" lengthAdjust="spacing" textLength="316" x="2062.485" y="515.6437">UC019: Oznaczenie zg&#322;oszenia jako op&#322;acone</text></g><g id="elem_UC020"><ellipse cx="2595.6213" cy="512.9243" fill="#F1F1F1" rx="167.6213" ry="35.9243" style="stroke:#181818;stroke-width:0.5;"/><text fill="#000000" font-family="sans-serif" font-size="14" lengthAdjust="spacing" textLength="307" x="2442.1213" y="515.7709">UC020: Oznaczenie zg&#322;oszenia jako wys&#322;ane</text></g><g id="elem_UC021"><ellipse cx="3005.5976" cy="512.9195" fill="#F1F1F1" rx="207.5976" ry="43.9195" style="stroke:#181818;stroke-width:0.5;"/><text fill="#000000" font-family="sans-serif" font-size="14" lengthAdjust="spacing" textLength="389" x="2811.0976" y="515.7662">UC021: Oznaczenie zg&#322;oszenia jako odebrane osobi&#347;cie</text></g><g id="elem_UC022"><ellipse cx="775.5447" cy="694.4089" fill="#F1F1F1" rx="170.0447" ry="36.4089" style="stroke:#181818;stroke-width:0.5;"/><text fill="#000000" font-family="sans-serif" font-size="14" lengthAdjust="spacing" textLength="312" x="619.5447" y="697.2556">UC022: Zg&#322;oszenie reklamacji do zam&#243;wienia</text></g><g id="elem_UC023"><ellipse cx="4207.2578" cy="328.6516" fill="#F1F1F1" rx="138.7578" ry="30.1516" style="stroke:#181818;stroke-width:0.5;"/><text fill="#000000" font-family="sans-serif" font-size="14" lengthAdjust="spacing" textLength="247" x="4083.7578" y="331.4982">UC023: Wy&#347;wietlenie listy reklamacji</text></g><g id="elem_UC024"><ellipse cx="4192.4468" cy="513.0894" fill="#F1F1F1" rx="125.9468" ry="27.5894" style="stroke:#181818;stroke-width:0.5;"/><text fill="#000000" font-family="sans-serif" font-size="14" lengthAdjust="spacing" textLength="220" x="4082.4468" y="515.936">UC024: Rozpatrzenie reklamacji</text></g><g id="elem_UC025"><ellipse cx="4552.5147" cy="328.6029" fill="#F1F1F1" rx="171.0147" ry="36.6029" style="stroke:#181818;stroke-width:0.5;"/><text fill="#000000" font-family="sans-serif" font-size="14" lengthAdjust="spacing" textLength="314" x="4395.5147" y="331.4496">UC025: Wy&#347;wietlenie listy potrzebnych cz&#281;&#347;ci</text></g><g id="elem_UC026"><ellipse cx="4823.6224" cy="513.2245" fill="#F1F1F1" rx="141.6224" ry="30.7245" style="stroke:#181818;stroke-width:0.5;"/><text fill="#000000" font-family="sans-serif" font-size="14" lengthAdjust="spacing" textLength="253" x="4697.1224" y="516.0712">UC026: Dodanie potrzebnych cz&#281;&#347;ci</text></g><g id="elem_UC027"><ellipse cx="4500.4091" cy="513.1818" fill="#F1F1F1" rx="146.4091" ry="31.6818" style="stroke:#181818;stroke-width:0.5;"/><text fill="#000000" font-family="sans-serif" font-size="14" lengthAdjust="spacing" textLength="263" x="4368.9091" y="516.0285">UC027: Usuniecie potrzebnych cz&#281;&#347;ci</text></g><g id="elem_UC028"><ellipse cx="5800.2817" cy="328.4563" fill="#F1F1F1" rx="162.7817" ry="34.9563" style="stroke:#181818;stroke-width:0.5;"/><text fill="#000000" font-family="sans-serif" font-size="14" lengthAdjust="spacing" textLength="297" x="5651.7817" y="331.303">UC028: Wy&#347;wietlenie listy zam&#243;wie&#324; cz&#281;&#347;ci</text></g><g id="elem_UC029"><ellipse cx="5966.4123" cy="512.7825" fill="#F1F1F1" rx="174.4123" ry="37.2825" style="stroke:#181818;stroke-width:0.5;"/><text fill="#000000" font-family="sans-serif" font-size="14" lengthAdjust="spacing" textLength="321" x="5805.9123" y="515.6291">UC029: Zarejestrowanie zam&#243;wienia na cz&#281;&#347;ci</text></g><g id="elem_UC030"><ellipse cx="3890.6152" cy="694.623" fill="#F1F1F1" rx="153.6152" ry="33.123" style="stroke:#181818;stroke-width:0.5;"/><text fill="#000000" font-family="sans-serif" font-size="14" lengthAdjust="spacing" textLength="278" x="3751.6152" y="697.4697">UC030: Usuniecie zam&#243;wienia na cz&#281;&#347;ci</text></g><g id="elem_UC031"><ellipse cx="5551.638" cy="513.0276" fill="#F1F1F1" rx="205.638" ry="43.5276" style="stroke:#181818;stroke-width:0.5;"/><text fill="#000000" font-family="sans-serif" font-size="14" lengthAdjust="spacing" textLength="385" x="5359.138" y="515.8743">UC031: Wy&#347;wietlenie szczeg&#243;&#322;&#243;w zam&#243;wienia na cz&#281;&#347;ci</text></g><g id="elem_UC032"><ellipse cx="5551.4346" cy="694.5869" fill="#F1F1F1" rx="158.4346" ry="34.0869" style="stroke:#181818;stroke-width:0.5;"/><text fill="#000000" font-family="sans-serif" font-size="14" lengthAdjust="spacing" textLength="288" x="5407.4346" y="697.4336">UC032: Zarejestrowanie odebrania cz&#281;&#347;ci</text></g><g id="elem_UC033"><ellipse cx="6993.5147" cy="328.6029" fill="#F1F1F1" rx="171.0147" ry="36.6029" style="stroke:#181818;stroke-width:0.5;"/><text fill="#000000" font-family="sans-serif" font-size="14" lengthAdjust="spacing" textLength="314" x="6836.5147" y="331.4496">UC033: Wy&#347;wietlenie listy posiadanych cz&#281;&#347;ci</text></g><g id="elem_UC034"><ellipse cx="6912.6669" cy="513.0334" fill="#F1F1F1" rx="140.6669" ry="30.5334" style="stroke:#181818;stroke-width:0.5;"/><text fill="#000000" font-family="sans-serif" font-size="14" lengthAdjust="spacing" textLength="251" x="6787.1669" y="515.8801">UC034: Usuni&#281;cie posiadanej cz&#281;&#347;ci</text></g><g id="elem_UC035"><ellipse cx="7224.3991" cy="513.0798" fill="#F1F1F1" rx="135.8991" ry="29.5798" style="stroke:#181818;stroke-width:0.5;"/><text fill="#000000" font-family="sans-serif" font-size="14" lengthAdjust="spacing" textLength="241" x="7103.8991" y="515.9265">UC035: Dodanie posiadanej cz&#281;&#347;ci</text></g><g id="elem_UC036"><ellipse cx="3395.3682" cy="512.8736" fill="#F1F1F1" rx="147.3682" ry="31.8736" style="stroke:#181818;stroke-width:0.5;"/><text fill="#000000" font-family="sans-serif" font-size="14" lengthAdjust="spacing" textLength="265" x="3262.8682" y="515.7203">UC036: Dodanie notatki do zg&#322;oszenia</text></g><g id="elem_UC037"><ellipse cx="8611.288" cy="512.7576" fill="#F1F1F1" rx="149.288" ry="32.2576" style="stroke:#181818;stroke-width:0.5;"/><text fill="#000000" font-family="sans-serif" font-size="14" lengthAdjust="spacing" textLength="269" x="8476.788" y="515.6043">UC037: Wy&#347;wietlenie listy pracownik&#243;w</text></g><g id="elem_UC038"><ellipse cx="8914.6957" cy="694.3391" fill="#F1F1F1" rx="114.6957" ry="25.3391" style="stroke:#181818;stroke-width:0.5;"/><text fill="#000000" font-family="sans-serif" font-size="14" lengthAdjust="spacing" textLength="196" x="8816.6957" y="697.1858">UC038: Dodanie pracownika</text></g><g id="elem_UC039"><ellipse cx="8303.3655" cy="694.2731" fill="#F1F1F1" rx="119.3655" ry="26.2731" style="stroke:#181818;stroke-width:0.5;"/><text fill="#000000" font-family="sans-serif" font-size="14" lengthAdjust="spacing" textLength="206" x="8200.3655" y="697.1198">UC039: Usuni&#281;cie pracownika</text></g><g id="elem_UC040"><ellipse cx="8611.6339" cy="694.5268" fill="#F1F1F1" rx="153.1339" ry="33.0268" style="stroke:#181818;stroke-width:0.5;"/><text fill="#000000" font-family="sans-serif" font-size="14" lengthAdjust="spacing" textLength="277" x="8473.1339" y="697.3735">UC040: Wy&#347;wietlenie grafiku pracownika</text></g><g id="elem_UC041"><ellipse cx="6142.5353" cy="328.6071" fill="#F1F1F1" rx="143.5353" ry="31.1071" style="stroke:#181818;stroke-width:0.5;"/><text fill="#000000" font-family="sans-serif" font-size="14" lengthAdjust="spacing" textLength="257" x="6014.0353" y="331.4537">UC041: Wy&#347;wietlenie swojego grafiku</text></g><g id="elem_UC042"><ellipse cx="8953.4876" cy="512.7975" fill="#F1F1F1" rx="156.9876" ry="33.7975" style="stroke:#181818;stroke-width:0.5;"/><text fill="#000000" font-family="sans-serif" font-size="14" lengthAdjust="spacing" textLength="285" x="8810.9876" y="515.6442">UC042: Wy&#347;wietlenie wszystkich grafik&#243;w</text></g><g id="elem_UC043"><ellipse cx="7728.4557" cy="328.4911" fill="#F1F1F1" rx="172.9557" ry="36.9911" style="stroke:#181818;stroke-width:0.5;"/><text fill="#000000" font-family="sans-serif" font-size="14" lengthAdjust="spacing" textLength="318" x="7569.4557" y="331.3378">UC043: Wy&#347;wietlenie listy znanych problem&#243;w</text></g><g id="elem_UC044"><ellipse cx="7916.3415" cy="513.1683" fill="#F1F1F1" rx="196.3415" ry="41.6683" style="stroke:#181818;stroke-width:0.5;"/><text fill="#000000" font-family="sans-serif" font-size="14" lengthAdjust="spacing" textLength="366" x="7733.3415" y="516.015">UC044: Wy&#347;wietlenie szczeg&#243;&#322;&#243;w znanego problemu</text></g><g id="elem_UC045"><ellipse cx="8287.712" cy="512.8424" fill="#F1F1F1" rx="139.712" ry="30.3424" style="stroke:#181818;stroke-width:0.5;"/><text fill="#000000" font-family="sans-serif" font-size="14" lengthAdjust="spacing" textLength="249" x="8163.212" y="515.6891">UC045: Dodanie znanego problemu</text></g><g id="elem_UC046"><ellipse cx="7540.4927" cy="512.7985" fill="#F1F1F1" rx="144.4927" ry="31.2985" style="stroke:#181818;stroke-width:0.5;"/><text fill="#000000" font-family="sans-serif" font-size="14" lengthAdjust="spacing" textLength="259" x="7410.9927" y="515.6452">UC046: Usuni&#281;cie znanego problemu</text></g><!--reverse link User to Client--><g id="link_User_Client"><path d="M2946.3253,48.0865 C2672.1953,65.2765 1065.52,166.02 869.79,178.29 " fill="none" id="User-backto-Client" style="stroke:#181818;stroke-width:1.0;"/><polygon fill="none" points="2964.29,46.96,2945.9498,42.0983,2946.7008,54.0748,2964.29,46.96" style="stroke:#181818;stroke-width:1.0;"/></g><!--reverse link User to Repairman--><g id="link_User_Repairman"><path d="M3060.5048,47.5215 C3357.8348,63.2615 5242.71,163.05 5519.85,177.72 " fill="none" id="User-backto-Repairman" style="stroke:#181818;stroke-width:1.0;"/><polygon fill="none" points="3042.53,46.57,3060.1876,53.5132,3060.822,41.5299,3042.53,46.57" style="stroke:#181818;stroke-width:1.0;"/></g><!--reverse link Repairman to Manager--><g id="link_Repairman_Manager"><path d="M5605.2112,183.1032 C5817.0212,189.7332 6967.68,226.79 7919.5,279.5 C8173.21,293.55 8478.8,317.05 8578.39,324.87 " fill="none" id="Repairman-backto-Manager" style="stroke:#181818;stroke-width:1.0;"/><polygon fill="none" points="5587.22,182.54,5605.0235,189.1002,5605.3989,177.1061,5587.22,182.54" style="stroke:#181818;stroke-width:1.0;"/></g><!--link Client to UC001--><g id="link_Client_UC001"><path d="M831.28,186.44 C760.98,204.51 520.641,266.286 383.101,301.646 " fill="none" id="Client-to-UC001" style="stroke:#181818;stroke-width:1.0;"/><polygon fill="#181818" points="377.29,303.14,387.0025,304.7731,382.1325,301.895,385.0106,297.0251,377.29,303.14" style="stroke:#181818;stroke-width:1.0;"/></g><!--link UC001 to UC002--><g id="link_UC001_UC002"><path d="M279.19,361.29 C276.11,390.91 272.1012,429.3522 268.6712,462.3022 " fill="none" id="UC001-to-UC002" style="stroke:#181818;stroke-width:1.0;stroke-dasharray:7.0,7.0;"/><polygon fill="#181818" points="268.05,468.27,272.9603,459.7325,268.5677,463.2969,265.0033,458.9042,268.05,468.27" style="stroke:#181818;stroke-width:1.0;"/><text fill="#000000" font-family="sans-serif" font-size="13" lengthAdjust="spacing" textLength="57" x="275.5" y="420.5669">&#171;invoke&#187;</text></g><!--link Repairman to UC003--><g id="link_Repairman_UC003"><path d="M5519.85,189.48 C5449.56,206.15 5282.02,245.93 5141.5,279.5 C5115.28,285.77 5092.9642,291.1094 5066.3042,297.5094 " fill="none" id="Repairman-to-UC003" style="stroke:#181818;stroke-width:1.0;"/><polygon fill="#181818" points="5060.47,298.91,5070.1551,300.6986,5065.3319,297.7429,5068.2877,292.9197,5060.47,298.91" style="stroke:#181818;stroke-width:1.0;"/></g><!--link Repairman to UC004--><g id="link_Repairman_UC004"><path d="M5587.24,185.19 C5693.1,196.92 6027.99,235.2 6303.5,279.5 C6330.77,283.88 6353.7202,287.888 6381.7602,293.078 " fill="none" id="Repairman-to-UC004" style="stroke:#181818;stroke-width:1.0;"/><polygon fill="#181818" points="6387.66,294.17,6379.5383,288.5988,6382.7435,293.26,6378.0823,296.4652,6387.66,294.17" style="stroke:#181818;stroke-width:1.0;"/></g><!--link UC003 to UC005--><g id="link_UC003_UC005"><path d="M4984.81,366.43 C5024.01,399.87 5076.5849,444.6965 5113.7649,476.4065 " fill="none" id="UC003-to-UC005" style="stroke:#181818;stroke-width:1.0;stroke-dasharray:7.0,7.0;"/><polygon fill="#181818" points="5118.33,480.3,5114.078,471.4163,5114.5257,477.0554,5108.8866,477.5032,5118.33,480.3" style="stroke:#181818;stroke-width:1.0;"/><text fill="#000000" font-family="sans-serif" font-size="13" lengthAdjust="spacing" textLength="57" x="5049.5" y="420.5669">&#171;invoke&#187;</text></g><!--link Repairman to UC006--><g id="link_Repairman_UC006"><path d="M5519.73,210 C5495.25,230.66 5466.2354,255.1504 5438.1754,278.8304 " fill="none" id="Repairman-to-UC006" style="stroke:#181818;stroke-width:1.0;"/><polygon fill="#181818" points="5433.59,282.7,5443.0479,279.9525,5437.4112,279.4753,5437.8883,273.8386,5433.59,282.7" style="stroke:#181818;stroke-width:1.0;"/></g><!--link UC006 to UC005--><g id="link_UC006_UC005"><path d="M5325.46,374.14 C5284.87,407.07 5235.2897,447.2802 5199.1197,476.6202 " fill="none" id="UC006-to-UC005" style="stroke:#181818;stroke-width:1.0;stroke-dasharray:7.0,7.0;"/><polygon fill="#181818" points="5194.46,480.4,5203.9695,477.8367,5198.3431,477.2501,5198.9297,471.6238,5194.46,480.4" style="stroke:#181818;stroke-width:1.0;"/><text fill="#000000" font-family="sans-serif" font-size="13" lengthAdjust="spacing" textLength="57" x="5281.5" y="420.5669">&#171;invoke&#187;</text></g><!--link UC004 to UC007--><g id="link_UC004_UC007"><path d="M6528.75,377.45 C6516.05,401.11 6503.4681,424.5337 6490.1481,449.3437 " fill="none" id="UC004-to-UC007" style="stroke:#181818;stroke-width:1.0;stroke-dasharray:7.0,7.0;"/><polygon fill="#181818" points="6487.31,454.63,6495.0914,448.5926,6489.6751,450.2247,6488.043,444.8085,6487.31,454.63" style="stroke:#181818;stroke-width:1.0;"/><text fill="#000000" font-family="sans-serif" font-size="13" lengthAdjust="spacing" textLength="57" x="6511.5" y="420.5669">&#171;invoke&#187;</text></g><!--link UC007 to UC008--><g id="link_UC007_UC008"><path d="M6456.5,571.78 C6456.5,596.58 6456.5,619.13 6456.5,642.35 " fill="none" id="UC007-to-UC008" style="stroke:#181818;stroke-width:1.0;stroke-dasharray:7.0,7.0;"/><polygon fill="#181818" points="6456.5,648.35,6460.5,639.35,6456.5,643.35,6452.5,639.35,6456.5,648.35" style="stroke:#181818;stroke-width:1.0;"/><text fill="#000000" font-family="sans-serif" font-size="13" lengthAdjust="spacing" textLength="57" x="6457.5" y="614.5669">&#171;invoke&#187;</text></g><!--link Repairman to UC009--><g id="link_Repairman_UC009"><path d="M5519.92,183.59 C5357.79,193.72 4639.69,238.79 4051.5,279.5 C3896.71,290.21 3727.4134,302.6345 3597.0034,312.3445 " fill="none" id="Repairman-to-UC009" style="stroke:#181818;stroke-width:1.0;"/><polygon fill="#181818" points="3591.02,312.79,3600.2922,316.1107,3596.0062,312.4187,3599.6981,308.1328,3591.02,312.79" style="stroke:#181818;stroke-width:1.0;"/></g><!--link UC009 to UC010--><g id="link_UC009_UC010"><path d="M3186.64,330.37 C2855.43,334.88 2190.48,356.66 1636.5,454.5 C1602.48,460.51 1571.8087,467.669 1538.6187,476.489 " fill="none" id="UC009-to-UC010" style="stroke:#181818;stroke-width:1.0;stroke-dasharray:7.0,7.0;"/><polygon fill="#181818" points="1532.82,478.03,1542.5454,479.5844,1537.6523,476.7459,1540.4908,471.8527,1532.82,478.03" style="stroke:#181818;stroke-width:1.0;"/><text fill="#000000" font-family="sans-serif" font-size="13" lengthAdjust="spacing" textLength="57" x="1922.5" y="420.5669">&#171;invoke&#187;</text></g><!--link UC009 to UC011--><g id="link_UC009_UC011"><path d="M3471.21,369.55 C3534.19,402.86 3617.3062,446.8347 3675.4062,477.5647 " fill="none" id="UC009-to-UC011" style="stroke:#181818;stroke-width:1.0;stroke-dasharray:7.0,7.0;"/><polygon fill="#181818" points="3680.71,480.37,3674.6245,472.6262,3676.2902,478.0323,3670.8841,479.698,3680.71,480.37" style="stroke:#181818;stroke-width:1.0;"/><text fill="#000000" font-family="sans-serif" font-size="13" lengthAdjust="spacing" textLength="57" x="3568.5" y="420.5669">&#171;invoke&#187;</text></g><!--link Client to UC013--><g id="link_Client_UC013"><path d="M831.25,198.53 C805.83,221.02 764.8831,257.2535 731.4831,286.8135 " fill="none" id="Client-to-UC013" style="stroke:#181818;stroke-width:1.0;"/><polygon fill="#181818" points="726.99,290.79,736.3806,287.8206,730.7342,287.4763,731.0786,281.8299,726.99,290.79" style="stroke:#181818;stroke-width:1.0;"/></g><!--link Client to UC014--><g id="link_Client_UC014"><path d="M867.5,218.56 C883.46,258.69 902.28,324.12 883.5,377.5 C872.92,407.59 856.4369,431.4362 836.1369,454.2662 " fill="none" id="Client-to-UC014" style="stroke:#181818;stroke-width:1.0;"/><polygon fill="#181818" points="832.15,458.75,841.1196,454.6822,835.4724,455.0135,835.1412,449.3663,832.15,458.75" style="stroke:#181818;stroke-width:1.0;"/></g><!--link UC013 to UC014--><g id="link_UC013_UC014"><path d="M703.93,366.87 C716.84,393.05 731.6362,423.0588 746.0762,452.3388 " fill="none" id="UC013-to-UC014" style="stroke:#181818;stroke-width:1.0;stroke-dasharray:7.0,7.0;"/><polygon fill="#181818" points="748.73,457.72,748.3367,447.879,746.5185,453.2357,741.1618,451.4174,748.73,457.72" style="stroke:#181818;stroke-width:1.0;"/><text fill="#000000" font-family="sans-serif" font-size="13" lengthAdjust="spacing" textLength="57" x="731.5" y="420.5669">&#171;invoke&#187;</text></g><!--link UC009 to UC012--><g id="link_UC009_UC012"><path d="M3187.67,333.43 C2643.26,344.71 1212.6,381.24 1142.5,454.5 C1089.56,509.82 1108.5739,603.8027 1124.3039,655.1927 " fill="none" id="UC009-to-UC012" style="stroke:#181818;stroke-width:1.0;stroke-dasharray:7.0,7.0;"/><polygon fill="#181818" points="1126.06,660.93,1127.2507,651.1534,1124.5966,656.149,1119.601,653.4949,1126.06,660.93" style="stroke:#181818;stroke-width:1.0;"/><text fill="#000000" font-family="sans-serif" font-size="13" lengthAdjust="spacing" textLength="57" x="1143.5" y="517.5669">&#171;invoke&#187;</text></g><!--link UC014 to UC012--><g id="link_UC014_UC012"><path d="M877.3,564.48 C941.71,596.42 1017.4148,633.9541 1071.7948,660.9241 " fill="none" id="UC014-to-UC012" style="stroke:#181818;stroke-width:1.0;stroke-dasharray:7.0,7.0;"/><polygon fill="#181818" points="1077.17,663.59,1070.8844,656.0077,1072.6906,661.3684,1067.3299,663.1747,1077.17,663.59" style="stroke:#181818;stroke-width:1.0;"/><text fill="#000000" font-family="sans-serif" font-size="13" lengthAdjust="spacing" textLength="57" x="979.5" y="614.5669">&#171;invoke&#187;</text></g><!--link UC014 to UC015--><g id="link_UC014_UC015"><path d="M623.08,558.49 C506.05,592.64 354.1796,636.9686 256.4496,665.4986 " fill="none" id="UC014-to-UC015" style="stroke:#181818;stroke-width:1.0;stroke-dasharray:7.0,7.0;"/><polygon fill="#181818" points="250.69,667.18,260.4503,668.4977,255.4897,665.7788,258.2085,660.8182,250.69,667.18" style="stroke:#181818;stroke-width:1.0;"/><text fill="#000000" font-family="sans-serif" font-size="13" lengthAdjust="spacing" textLength="57" x="469.5" y="614.5669">&#171;invoke&#187;</text></g><!--link UC009 to UC016--><g id="link_UC009_UC016"><path d="M3596.84,340.31 C3701.72,354.58 3827.19,386.08 3920.5,454.5 C3969.37,490.33 3938.46,540.45 3990.5,571.5 C4156.4,670.49 5535.53,626.86 5727.5,648.5 C5774.39,653.79 5819.8996,661.5086 5863.6096,669.9786 " fill="none" id="UC009-to-UC016" style="stroke:#181818;stroke-width:1.0;stroke-dasharray:7.0,7.0;"/><polygon fill="#181818" points="5869.5,671.12,5861.4253,665.4809,5864.5913,670.1688,5859.9034,673.3348,5869.5,671.12" style="stroke:#181818;stroke-width:1.0;"/><text fill="#000000" font-family="sans-serif" font-size="13" lengthAdjust="spacing" textLength="57" x="3991.5" y="517.5669">&#171;invoke&#187;</text></g><!--link UC007 to UC016--><g id="link_UC007_UC016"><path d="M6321.27,564.36 C6232.72,597.34 6126.0229,637.0765 6053.6129,664.0365 " fill="none" id="UC007-to-UC016" style="stroke:#181818;stroke-width:1.0;stroke-dasharray:7.0,7.0;"/><polygon fill="#181818" points="6047.99,666.13,6057.8201,666.7383,6052.6758,664.3854,6055.0287,659.2411,6047.99,666.13" style="stroke:#181818;stroke-width:1.0;"/><text fill="#000000" font-family="sans-serif" font-size="13" lengthAdjust="spacing" textLength="57" x="6216.5" y="614.5669">&#171;invoke&#187;</text></g><!--link UC009 to UC017--><g id="link_UC009_UC017"><path d="M3189.2,335.62 C2920.49,346.51 2437.16,376.04 2031.5,454.5 C1997.76,461.03 1967.2295,469.0243 1935.0595,478.6243 " fill="none" id="UC009-to-UC017" style="stroke:#181818;stroke-width:1.0;stroke-dasharray:7.0,7.0;"/><polygon fill="#181818" points="1929.31,480.34,1939.078,481.5994,1934.1012,478.9102,1936.7904,473.9334,1929.31,480.34" style="stroke:#181818;stroke-width:1.0;"/><text fill="#000000" font-family="sans-serif" font-size="13" lengthAdjust="spacing" textLength="57" x="2290.5" y="420.5669">&#171;invoke&#187;</text></g><!--link UC014 to UC018--><g id="link_UC014_UC018"><path d="M685.23,565.44 C623.6,600.56 550.2725,642.3385 504.2425,668.5785 " fill="none" id="UC014-to-UC018" style="stroke:#181818;stroke-width:1.0;stroke-dasharray:7.0,7.0;"/><polygon fill="#181818" points="499.03,671.55,508.8298,670.5678,503.3738,669.0738,504.8678,663.6178,499.03,671.55" style="stroke:#181818;stroke-width:1.0;"/><text fill="#000000" font-family="sans-serif" font-size="13" lengthAdjust="spacing" textLength="57" x="619.5" y="614.5669">&#171;invoke&#187;</text></g><!--link UC009 to UC019--><g id="link_UC009_UC019"><path d="M3200.44,344.54 C3000.55,362.22 2681.51,396.72 2410.5,454.5 C2377.47,461.54 2347.6086,469.836 2316.2686,479.596 " fill="none" id="UC009-to-UC019" style="stroke:#181818;stroke-width:1.0;stroke-dasharray:7.0,7.0;"/><polygon fill="#181818" points="2310.54,481.38,2320.3223,482.523,2315.3139,479.8933,2317.9436,474.8849,2310.54,481.38" style="stroke:#181818;stroke-width:1.0;"/><text fill="#000000" font-family="sans-serif" font-size="13" lengthAdjust="spacing" textLength="57" x="2651.5" y="420.5669">&#171;invoke&#187;</text></g><!--link UC009 to UC020--><g id="link_UC009_UC020"><path d="M3236.82,357.2 C3112.04,380.08 2934.2,415.1 2780.5,454.5 C2748.9,462.6 2720.4021,471.0152 2690.0921,480.5752 " fill="none" id="UC009-to-UC020" style="stroke:#181818;stroke-width:1.0;stroke-dasharray:7.0,7.0;"/><polygon fill="#181818" points="2684.37,482.38,2694.1564,483.4875,2689.1384,480.876,2691.75,475.8581,2684.37,482.38" style="stroke:#181818;stroke-width:1.0;"/><text fill="#000000" font-family="sans-serif" font-size="13" lengthAdjust="spacing" textLength="57" x="2982.5" y="420.5669">&#171;invoke&#187;</text></g><!--link UC009 to UC021--><g id="link_UC009_UC021"><path d="M3311.36,368.88 C3245.75,399.58 3160.4942,439.4665 3094.9242,470.1565 " fill="none" id="UC009-to-UC021" style="stroke:#181818;stroke-width:1.0;stroke-dasharray:7.0,7.0;"/><polygon fill="#181818" points="3089.49,472.7,3099.337,472.5076,3094.0185,470.5804,3095.9457,465.262,3089.49,472.7" style="stroke:#181818;stroke-width:1.0;"/><text fill="#000000" font-family="sans-serif" font-size="13" lengthAdjust="spacing" textLength="57" x="3224.5" y="420.5669">&#171;invoke&#187;</text></g><!--link UC009 to UC024--><g id="link_UC009_UC024"><path d="M3599.31,338.55 C3716.25,348.07 3864.58,367.57 3991.5,407.5 C3999.64,410.06 4083.7678,454.3416 4140.5578,484.4216 " fill="none" id="UC009-to-UC024" style="stroke:#181818;stroke-width:1.0;stroke-dasharray:7.0,7.0;"/><polygon fill="#181818" points="4145.86,487.23,4139.779,479.4826,4141.4415,484.8897,4136.0345,486.5522,4145.86,487.23" style="stroke:#181818;stroke-width:1.0;"/><text fill="#000000" font-family="sans-serif" font-size="13" lengthAdjust="spacing" textLength="57" x="4026.5" y="420.5669">&#171;invoke&#187;</text></g><!--link UC014 to UC022--><g id="link_UC014_UC022"><path d="M775.5,568.83 C775.5,597.8 775.5,626.53 775.5,651.96 " fill="none" id="UC014-to-UC022" style="stroke:#181818;stroke-width:1.0;stroke-dasharray:7.0,7.0;"/><polygon fill="#181818" points="775.5,657.96,779.5,648.96,775.5,652.96,771.5,648.96,775.5,657.96" style="stroke:#181818;stroke-width:1.0;"/><text fill="#000000" font-family="sans-serif" font-size="13" lengthAdjust="spacing" textLength="57" x="776.5" y="614.5669">&#171;invoke&#187;</text></g><!--link Repairman to UC023--><g id="link_Repairman_UC023"><path d="M5519.57,181.65 C5377.33,182.82 4815.58,193 4364.5,279.5 C4335.67,285.03 4310.3333,292.0473 4283.5233,300.6473 " fill="none" id="Repairman-to-UC023" style="stroke:#181818;stroke-width:1.0;"/><polygon fill="#181818" points="4277.81,302.48,4287.6017,303.5398,4282.571,300.9528,4285.1581,295.9222,4277.81,302.48" style="stroke:#181818;stroke-width:1.0;"/></g><!--link UC023 to UC024--><g id="link_UC023_UC024"><path d="M4205.09,358.82 C4202.22,393.79 4197.9415,445.7402 4195.1715,479.4402 " fill="none" id="UC023-to-UC024" style="stroke:#181818;stroke-width:1.0;stroke-dasharray:7.0,7.0;"/><polygon fill="#181818" points="4194.68,485.42,4199.4038,476.7779,4195.0896,480.4368,4191.4307,476.1226,4194.68,485.42" style="stroke:#181818;stroke-width:1.0;"/><text fill="#000000" font-family="sans-serif" font-size="13" lengthAdjust="spacing" textLength="57" x="4201.5" y="420.5669">&#171;invoke&#187;</text></g><!--link UC009 to UC026--><g id="link_UC009_UC026"><path d="M3590.27,344.66 C3720.74,354.59 3896.37,367.52 4051.5,377.5 C4171.66,385.23 4475.55,378.87 4592.5,407.5 C4597.06,408.62 4692.553,452.1059 4759.483,482.6959 " fill="none" id="UC009-to-UC026" style="stroke:#181818;stroke-width:1.0;stroke-dasharray:7.0,7.0;"/><polygon fill="#181818" points="4764.94,485.19,4758.4172,477.8108,4760.3925,483.1116,4755.0917,485.0869,4764.94,485.19" style="stroke:#181818;stroke-width:1.0;"/><text fill="#000000" font-family="sans-serif" font-size="13" lengthAdjust="spacing" textLength="57" x="4629.5" y="420.5669">&#171;invoke&#187;</text></g><!--link Repairman to UC025--><g id="link_Repairman_UC025"><path d="M5519.62,184.02 C5407.79,192.66 5040.57,223.72 4741.5,279.5 C4713.05,284.81 4688.3351,290.4419 4660.2851,297.5719 " fill="none" id="Repairman-to-UC025" style="stroke:#181818;stroke-width:1.0;"/><polygon fill="#181818" points="4654.47,299.05,4664.178,300.7095,4659.3159,297.8182,4662.2072,292.9561,4654.47,299.05" style="stroke:#181818;stroke-width:1.0;"/></g><!--link UC025 to UC026--><g id="link_UC025_UC026"><path d="M4620.32,362.04 C4645.53,375.09 4673.96,390.95 4698.5,407.5 C4732.5,430.44 4763.6398,456.8956 4788.0998,479.0156 " fill="none" id="UC025-to-UC026" style="stroke:#181818;stroke-width:1.0;stroke-dasharray:7.0,7.0;"/><polygon fill="#181818" points="4792.55,483.04,4788.5577,474.0366,4788.8415,479.6863,4783.1918,479.9701,4792.55,483.04" style="stroke:#181818;stroke-width:1.0;"/><text fill="#000000" font-family="sans-serif" font-size="13" lengthAdjust="spacing" textLength="57" x="4720.5" y="420.5669">&#171;invoke&#187;</text></g><!--link UC009 to UC027--><g id="link_UC009_UC027"><path d="M3599.98,337.78 C3739.84,347 3928.52,366.45 4090.5,407.5 C4110.02,412.45 4113.07,419.22 4132.5,424.5 C4220.94,448.53 4247.52,432.57 4336.5,454.5 C4368.72,462.44 4397.9121,472.0899 4427.1321,482.8899 " fill="none" id="UC009-to-UC027" style="stroke:#181818;stroke-width:1.0;stroke-dasharray:7.0,7.0;"/><polygon fill="#181818" points="4432.76,484.97,4425.7049,478.0979,4428.0701,483.2366,4422.9314,485.6017,4432.76,484.97" style="stroke:#181818;stroke-width:1.0;"/><text fill="#000000" font-family="sans-serif" font-size="13" lengthAdjust="spacing" textLength="57" x="4133.5" y="420.5669">&#171;invoke&#187;</text></g><!--link UC025 to UC027--><g id="link_UC025_UC027"><path d="M4541.85,365.19 C4537.92,378.46 4533.46,393.66 4529.5,407.5 C4522.4,432.3 4516.19,454.6945 4510.46,475.5445 " fill="none" id="UC025-to-UC027" style="stroke:#181818;stroke-width:1.0;stroke-dasharray:7.0,7.0;"/><polygon fill="#181818" points="4508.87,481.33,4515.112,473.7117,4510.195,476.5088,4507.398,471.5918,4508.87,481.33" style="stroke:#181818;stroke-width:1.0;"/><text fill="#000000" font-family="sans-serif" font-size="13" lengthAdjust="spacing" textLength="57" x="4530.5" y="420.5669">&#171;invoke&#187;</text></g><!--link Repairman to UC028--><g id="link_Repairman_UC028"><path d="M5587.07,201.34 C5627.96,225.51 5692.4152,263.6064 5740.9752,292.3164 " fill="none" id="Repairman-to-UC028" style="stroke:#181818;stroke-width:1.0;"/><polygon fill="#181818" points="5746.14,295.37,5740.4285,287.3464,5741.836,292.8253,5736.357,294.2328,5746.14,295.37" style="stroke:#181818;stroke-width:1.0;"/></g><!--link UC028 to UC029--><g id="link_UC028_UC029"><path d="M5830.95,362.97 C5860.06,394.98 5899.7828,438.6514 5929.6528,471.4914 " fill="none" id="UC028-to-UC029" style="stroke:#181818;stroke-width:1.0;stroke-dasharray:7.0,7.0;"/><polygon fill="#181818" points="5933.69,475.93,5930.5933,466.5806,5930.3257,472.2312,5924.6752,471.9636,5933.69,475.93" style="stroke:#181818;stroke-width:1.0;"/><text fill="#000000" font-family="sans-serif" font-size="13" lengthAdjust="spacing" textLength="57" x="5884.5" y="420.5669">&#171;invoke&#187;</text></g><!--link UC028 to UC031--><g id="link_UC028_UC031"><path d="M5755.7,362.34 C5714.11,392.82 5656.8994,434.7531 5612.1194,467.5731 " fill="none" id="UC028-to-UC031" style="stroke:#181818;stroke-width:1.0;stroke-dasharray:7.0,7.0;"/><polygon fill="#181818" points="5607.28,471.12,5616.9037,469.026,5611.3128,468.1643,5612.1745,462.5734,5607.28,471.12" style="stroke:#181818;stroke-width:1.0;"/><text fill="#000000" font-family="sans-serif" font-size="13" lengthAdjust="spacing" textLength="57" x="5691.5" y="420.5669">&#171;invoke&#187;</text></g><!--link UC031 to UC030--><g id="link_UC031_UC030"><path d="M5432.8,548.54 C5399.32,557.21 5362.69,565.68 5328.5,571.5 C4863.67,650.57 4311.1659,679.0995 4047.8959,688.7795 " fill="none" id="UC031-to-UC030" style="stroke:#181818;stroke-width:1.0;stroke-dasharray:7.0,7.0;"/><polygon fill="#181818" points="4041.9,689,4051.0409,692.6666,4046.8966,688.8163,4050.7469,684.672,4041.9,689" style="stroke:#181818;stroke-width:1.0;"/><text fill="#000000" font-family="sans-serif" font-size="13" lengthAdjust="spacing" textLength="57" x="5095.5" y="614.5669">&#171;invoke&#187;</text></g><!--link UC031 to UC032--><g id="link_UC031_UC032"><path d="M5551.5,556.54 C5551.5,588.26 5551.5,624.99 5551.5,654.23 " fill="none" id="UC031-to-UC032" style="stroke:#181818;stroke-width:1.0;stroke-dasharray:7.0,7.0;"/><polygon fill="#181818" points="5551.5,660.23,5555.5,651.23,5551.5,655.23,5547.5,651.23,5551.5,660.23" style="stroke:#181818;stroke-width:1.0;"/><text fill="#000000" font-family="sans-serif" font-size="13" lengthAdjust="spacing" textLength="57" x="5552.5" y="614.5669">&#171;invoke&#187;</text></g><!--link Repairman to UC033--><g id="link_Repairman_UC033"><path d="M5587.13,182.02 C5733.14,184.7 6326.37,200.19 6805.5,279.5 C6834.58,284.31 6859.929,289.9459 6888.359,297.2559 " fill="none" id="Repairman-to-UC033" style="stroke:#181818;stroke-width:1.0;"/><polygon fill="#181818" points="6894.17,298.75,6886.4496,292.6348,6889.3275,297.5049,6884.4574,300.3828,6894.17,298.75" style="stroke:#181818;stroke-width:1.0;"/></g><!--link UC033 to UC034--><g id="link_UC033_UC034"><path d="M6977.69,365.12 C6962.5,399.35 6942.2438,444.9858 6928.0338,477.0058 " fill="none" id="UC033-to-UC034" style="stroke:#181818;stroke-width:1.0;stroke-dasharray:7.0,7.0;"/><polygon fill="#181818" points="6925.6,482.49,6932.9069,475.8862,6927.6282,477.9198,6925.5946,472.6411,6925.6,482.49" style="stroke:#181818;stroke-width:1.0;"/><text fill="#000000" font-family="sans-serif" font-size="13" lengthAdjust="spacing" textLength="57" x="6958.5" y="420.5669">&#171;invoke&#187;</text></g><!--link UC033 to UC035--><g id="link_UC033_UC035"><path d="M7036.95,363.83 C7081.12,398.73 7144.0017,448.4009 7184.8417,480.6609 " fill="none" id="UC033-to-UC035" style="stroke:#181818;stroke-width:1.0;stroke-dasharray:7.0,7.0;"/><polygon fill="#181818" points="7189.55,484.38,7184.967,475.6624,7185.6264,481.2807,7180.0081,481.9402,7189.55,484.38" style="stroke:#181818;stroke-width:1.0;"/><text fill="#000000" font-family="sans-serif" font-size="13" lengthAdjust="spacing" textLength="57" x="7109.5" y="420.5669">&#171;invoke&#187;</text></g><!--link UC009 to UC036--><g id="link_UC009_UC036"><path d="M3395.5,372.75 C3395.5,405.95 3395.5,445.01 3395.5,474.76 " fill="none" id="UC009-to-UC036" style="stroke:#181818;stroke-width:1.0;stroke-dasharray:7.0,7.0;"/><polygon fill="#181818" points="3395.5,480.76,3399.5,471.76,3395.5,475.76,3391.5,471.76,3395.5,480.76" style="stroke:#181818;stroke-width:1.0;"/><text fill="#000000" font-family="sans-serif" font-size="13" lengthAdjust="spacing" textLength="57" x="3396.5" y="420.5669">&#171;invoke&#187;</text></g><!--link Manager to UC037--><g id="link_Manager_UC037"><path d="M8611.5,366.87 C8611.5,400.35 8611.5,442.89 8611.5,474.45 " fill="none" id="Manager-to-UC037" style="stroke:#181818;stroke-width:1.0;"/><polygon fill="#181818" points="8611.5,480.45,8615.5,471.45,8611.5,475.45,8607.5,471.45,8611.5,480.45" style="stroke:#181818;stroke-width:1.0;"/></g><!--link UC037 to UC038--><g id="link_UC037_UC038"><path d="M8661.53,543.64 C8721.54,579.19 8815.6881,634.9614 8870.3181,667.3314 " fill="none" id="UC037-to-UC038" style="stroke:#181818;stroke-width:1.0;stroke-dasharray:7.0,7.0;"/><polygon fill="#181818" points="8875.48,670.39,8869.7762,662.3609,8871.1784,667.8412,8865.6981,669.2434,8875.48,670.39" style="stroke:#181818;stroke-width:1.0;"/><text fill="#000000" font-family="sans-serif" font-size="13" lengthAdjust="spacing" textLength="57" x="8781.5" y="614.5669">&#171;invoke&#187;</text></g><!--link UC037 to UC039--><g id="link_UC037_UC039"><path d="M8560.64,543.64 C8500.16,578.89 8405.574,634.019 8349.754,666.549 " fill="none" id="UC037-to-UC039" style="stroke:#181818;stroke-width:1.0;stroke-dasharray:7.0,7.0;"/><polygon fill="#181818" points="8344.57,669.57,8354.36,668.4944,8348.89,667.0525,8350.3319,661.5825,8344.57,669.57" style="stroke:#181818;stroke-width:1.0;"/><text fill="#000000" font-family="sans-serif" font-size="13" lengthAdjust="spacing" textLength="57" x="8458.5" y="614.5669">&#171;invoke&#187;</text></g><!--link UC037 to UC040--><g id="link_UC037_UC040"><path d="M8611.5,545.68 C8611.5,578.19 8611.5,622.51 8611.5,655.23 " fill="none" id="UC037-to-UC040" style="stroke:#181818;stroke-width:1.0;stroke-dasharray:7.0,7.0;"/><polygon fill="#181818" points="8611.5,661.23,8615.5,652.23,8611.5,656.23,8607.5,652.23,8611.5,661.23" style="stroke:#181818;stroke-width:1.0;"/><text fill="#000000" font-family="sans-serif" font-size="13" lengthAdjust="spacing" textLength="57" x="8612.5" y="614.5669">&#171;invoke&#187;</text></g><!--link Repairman to UC041--><g id="link_Repairman_UC041"><path d="M5587.25,188.45 C5659.78,203.56 5835.72,241.12 5981.5,279.5 C6008.15,286.52 6031.3242,293.162 6057.1942,300.942 " fill="none" id="Repairman-to-UC041" style="stroke:#181818;stroke-width:1.0;"/><polygon fill="#181818" points="6062.94,302.67,6055.4733,296.2475,6058.1518,301.23,6053.1693,303.9086,6062.94,302.67" style="stroke:#181818;stroke-width:1.0;"/></g><!--link Manager to UC042--><g id="link_Manager_UC042"><path d="M8644.6,347.16 C8702.77,378.21 8818.6867,440.0549 8890.7667,478.5249 " fill="none" id="Manager-to-UC042" style="stroke:#181818;stroke-width:1.0;"/><polygon fill="#181818" points="8896.06,481.35,8890.0035,473.5835,8891.6489,478.9958,8886.2367,480.6412,8896.06,481.35" style="stroke:#181818;stroke-width:1.0;"/></g><!--link Repairman to UC043--><g id="link_Repairman_UC043"><path d="M5587.07,183.17 C5757.22,191.73 6541.46,232.05 7182.5,279.5 C7313.93,289.23 7456.9856,301.9259 7566.1056,312.0459 " fill="none" id="Repairman-to-UC043" style="stroke:#181818;stroke-width:1.0;"/><polygon fill="#181818" points="7572.08,312.6,7563.4878,307.786,7567.1014,312.1383,7562.7491,315.7518,7572.08,312.6" style="stroke:#181818;stroke-width:1.0;"/></g><!--link UC043 to UC044--><g id="link_UC043_UC044"><path d="M7764.75,364.69 C7796.44,395.45 7838.1253,435.9104 7871.1553,467.9804 " fill="none" id="UC043-to-UC044" style="stroke:#181818;stroke-width:1.0;stroke-dasharray:7.0,7.0;"/><polygon fill="#181818" points="7875.46,472.16,7871.7893,463.0207,7871.8727,468.677,7866.2165,468.7604,7875.46,472.16" style="stroke:#181818;stroke-width:1.0;"/><text fill="#000000" font-family="sans-serif" font-size="13" lengthAdjust="spacing" textLength="57" x="7823.5" y="420.5669">&#171;invoke&#187;</text></g><!--link UC043 to UC045--><g id="link_UC043_UC045"><path d="M7827.65,358.84 C7909.29,383.35 8027.86,419.77 8130.5,454.5 C8159.78,464.41 8186.2438,473.9352 8213.7438,484.1252 " fill="none" id="UC043-to-UC045" style="stroke:#181818;stroke-width:1.0;stroke-dasharray:7.0,7.0;"/><polygon fill="#181818" points="8219.37,486.21,8212.3206,479.3321,8214.6815,484.4727,8209.5409,486.8337,8219.37,486.21" style="stroke:#181818;stroke-width:1.0;"/><text fill="#000000" font-family="sans-serif" font-size="13" lengthAdjust="spacing" textLength="57" x="8032.5" y="420.5669">&#171;invoke&#187;</text></g><!--link UC043 to UC046--><g id="link_UC043_UC046"><path d="M7692.25,364.69 C7657.15,398.77 7608.8045,445.6901 7575.6545,477.8801 " fill="none" id="UC043-to-UC046" style="stroke:#181818;stroke-width:1.0;stroke-dasharray:7.0,7.0;"/><polygon fill="#181818" points="7571.35,482.06,7580.5933,478.6599,7574.9371,478.5768,7575.0202,472.9205,7571.35,482.06" style="stroke:#181818;stroke-width:1.0;"/><text fill="#000000" font-family="sans-serif" font-size="13" lengthAdjust="spacing" textLength="57" x="7646.5" y="420.5669">&#171;invoke&#187;</text></g><!--SRC=[fPVBZjis58RtVWh2gtOnWNZn5OFPfBkWc215K20xMc9SsHxHaEGQ4heAseSOv36opIxZzyeHTIJIaambwCRmwF3_puKVQStqpI5MIJubCYElpTV9z0-LdkDCujDtwYZZz4aca-cRMANwdCHx4_XT9dAhqidq_ULhaUzju7q6JoVL9xd_v-wkyRKFh6NxhGuqbk3vEWZecdpONZxfh5H9h4XsJCkNv_n48aqIUKpbkJ3fVZ5hVwqrR4t-BABq1EN8IdJK-HcgZYeBIShMJlOj65hmDNcRbiNkvJa40vtfJPpbQglzQevgKHLm-Gn9yuCf-m3gej7gf0Z_GZ61VbH9icRQqfe9D9jrkb5viGVZ0XoQSLZH34Lp41rXdsJKcrkMopI48gfkwkpxKmhZSLBFqMNHxIDEFchOgN0NawmCIxNzzWLQEbVzkACvUTfQeFTo3Opa4hmhOtUiExdNH6zKM0Nq9hjyEcrZw1qAjZPBj5brInmMkWcioQeseS6QF4OGltpzMGiQe0Lm-bRRVeuwB5_-gmw4sf4ebjj4bnOKYgHI8FM3j70g4gcmA66w3TsniY9aat8lNUhoRxEjviWvjIAULFpFRUqP8whKe0epCvoUOndf9ttv7CRLQQrPE5aHeahd7b4l4v99WSp7Cf5XEKmF3WyWjr84Zm9uZqT85nffzmnJ18kk_1cqiRXAW3InmAyyryrQ8KE661r96QbD2iBwEgf6v7WWKOnTtvUfsXzalRCmpb8-VVjY2BKZPOWLku6LTR0I18a1IEzqUPHvsircro8RR3Pi3tSpY3VcIeGZyrorPSN820D6VjDHSvbx1CW7MrItomdMXwCIv88jRnmhd1aSgxuMOM6hwXodQgUoFCLhsfbrTLFtjOWB3znInrGSMU6qMwqzk60mxeEySDQl73cBXsG82-UtTZE30oo79yqH6owmu_h7jT70HTcN83ryvWBWMO_0S0UOHESotzVy3zpW797XYnijfN3CgzSQcASL8JHywTJLB7IyaG- -kkvuO2NI889k5TjKVeptfo6HG1X47uQptbK_MIYs2jnsmRgASrOM6Om9DguMkUqAt7PnwwSdgRSStZWs1_Lq9SLD5s84s4JY6ucnS4f618I3mEt5kFzYVZNms-jXyoUJ-jsKtDqz4FCQEJ6VvDMh-cz6rkJ-Fax-rdlryE2yhZO2Fl1C61FUcip6JEP6CBybC9vjSD4FBjhWSYpLoWXMZO06VJSRfDV1wrbHtdrW-gPjtrJul5alICMF1MS-sxbdEaD1grpuSYvzofKdo7m3PjGN59w2s1YOZ4_CfyVDIJKVSviPjzajmRLRVvAESZ6MQca4orRGdwuDylu0UNjuUU0BZWsGcm7oTe2yFq0dw6EITuQ5_-IsYHR6gwMKzrbpWYjFK0GZFGdQJIxOm2hJkMYR4_tEdU3C5-nq_Xq0]--></g></svg>